<?xml version="1.0" encoding="UTF-8" standalone="no"?> <!-- Generator: Gravit.io --> <svg xmlns="http://www.w3.org/2000/svg" xmlns:xlink="http://www.w3.org/1999/xlink" style="isolation:isolate" viewBox="0 0 1024 1024" width="1024" height="1024"><defs><clipPath id="_clipPath_gHlMKYXC1WbYNSBS0on3IfXHjzkIp1Na"><rect width="1024" height="1024"></rect></clipPath></defs><g clip-path="url(#_clipPath_gHlMKYXC1WbYNSBS0on3IfXHjzkIp1Na)"><path d=" M 512 0 C 229.25 0 0 229.25 0 512 C 0 738.25 146.688 930.125 350.156 997.812 C 375.75 1002.5 385.094 986.687 385.094 973.187 C 385.094 960.999 384.625 920.625 384.375 877.875 C 242 908.812 211.906 817.5 211.906 817.5 C 188.594 758.375 155.062 742.625 155.062 742.625 C 108.531 710.875 158.592 711.5 158.592 711.5 C 209.998 715.062 237.062 764.25 237.062 764.25 C 282.75 842.5 356.937 819.875 386.062 806.75 C 390.716 773.75 403.966 751.125 418.562 738.375 C 304.906 725.438 185.344 681.5 185.344 485.312 C 185.344 429.374 205.313 383.75 238 347.906 C 232.781 334.906 215.156 282.812 243.062 212.344 C 243.062 212.344 286 198.594 383.874 264.844 C 424.686 253.438 468.468 247.813 511.999 247.625 C 555.499 247.813 599.311 253.5 640.187 264.906 C 737.875 198.594 780.875 212.406 780.875 212.406 C 808.875 282.937 791.25 334.968 786 347.906 C 818.812 383.75 838.625 429.375 838.625 485.312 C 838.625 682 718.875 725.312 604.813 738 C 623.251 753.875 639.563 785 639.563 832.75 C 639.563 901.188 638.875 956.375 638.875 973.25 C 638.875 986.875 648.187 1002.812 674.125 997.812 C 877.438 930 1024 738.125 1024 512 C 1024 229.25 794.75 0 512 0 Z " fill="rgb(0,0,0)"></path></g></svg> 